<svg xmlns="http://www.w3.org/2000/svg" viewBox="0 0 1024 1024">
  <defs>
    <linearGradient id="bg" x1="116" y1="76" x2="890" y2="940" gradientUnits="userSpaceOnUse">
      <stop stop-color="#5AC8FA"/>
      <stop offset=".45" stop-color="#007AFF"/>
      <stop offset="1" stop-color="#5856D6"/>
    </linearGradient>
    <linearGradient id="glass" x1="320" y1="258" x2="706" y2="714" gradientUnits="userSpaceOnUse">
      <stop stop-color="#FFFFFF" stop-opacity=".98"/>
      <stop offset="1" stop-color="#FFFFFF" stop-opacity=".78"/>
    </linearGradient>
    <filter id="shadow" x="-30%" y="-30%" width="160%" height="160%">
      <feDropShadow dx="0" dy="30" stdDeviation="34" flood-color="#102A70" flood-opacity=".22"/>
    </filter>
  </defs>
  <rect width="1024" height="1024" rx="228" fill="url(#bg)"/>
  <path d="M142 298C260 116 493 68 676 146c136 58 216 168 247 289-78-79-194-127-322-127-184 0-344 98-430 244-47-76-57-169-29-254Z" fill="#FFFFFF" opacity=".12"/>
  <g filter="url(#shadow)">
    <circle cx="468" cy="459" r="241" fill="url(#glass)"/>
    <circle cx="468" cy="459" r="190" fill="#F8FBFF" stroke="#D9E9FF" stroke-width="12"/>
    <path d="M322 568h74V438h-74v130Zm109 0h74V342h-74v226Zm109 0h74V392h-74v176Z" fill="#007AFF"/>
    <path d="m632 625 171 171" fill="none" stroke="#FFFFFF" stroke-linecap="round" stroke-width="92"/>
    <path d="m632 625 171 171" fill="none" stroke="#D8E8FF" stroke-linecap="round" stroke-width="52"/>
  </g>
  <circle cx="468" cy="459" r="241" fill="none" stroke="#FFFFFF" stroke-opacity=".58" stroke-width="10"/>
</svg>
